<svg width="44" height="44" viewBox="0 0 44 44" fill="none" xmlns="http://www.w3.org/2000/svg">
<path d="M9.16667 11H27.5C27.9862 11 28.4525 11.1932 28.7964 11.537C29.1402 11.8808 29.3333 12.3471 29.3333 12.8333V27.5C29.3333 29.4449 28.5607 31.3102 27.1854 32.6854C25.8102 34.0607 23.9449 34.8333 22 34.8333H14.6667C12.7217 34.8333 10.8565 34.0607 9.48122 32.6854C8.10595 31.3102 7.33333 29.4449 7.33333 27.5V12.8333C7.33333 12.3471 7.52649 11.8808 7.8703 11.537C8.21412 11.1932 8.68044 11 9.16667 11" stroke="#272643" stroke-width="2.75" stroke-linecap="round" stroke-linejoin="round"/>
<path d="M29.3333 16.5H33C33.9725 16.5 34.9051 16.8863 35.5927 17.5739C36.2804 18.2616 36.6667 19.1942 36.6667 20.1667V23.8333C36.6667 24.8058 36.2804 25.7384 35.5927 26.4261C34.9051 27.1137 33.9725 27.5 33 27.5H29.3333" stroke="#272643" stroke-width="2.75" stroke-linecap="round" stroke-linejoin="round"/>
</svg>
