<svg width="30" height="30" viewBox="0 0 30 30" fill="none" xmlns="http://www.w3.org/2000/svg">
<g clip-path="url(#clip0)">
<path d="M15 25L6.25 16.25C5.75755 15.7165 5.37499 15.0912 5.12418 14.4099C4.87337 13.7286 4.75921 13.0045 4.78823 12.279C4.84684 10.8139 5.48506 9.43207 6.5625 8.43751C7.63995 7.44295 9.06835 6.91713 10.5335 6.97574C11.9986 7.03434 13.3804 7.67257 14.375 8.75001C14.56 8.87362 14.7775 8.93959 15 8.93959C15.2225 8.93959 15.44 8.87362 15.625 8.75001C16.6196 7.67257 18.0014 7.03434 19.4665 6.97574C20.9317 6.91713 22.3601 7.44295 23.4375 8.43751C24.5149 9.43207 25.1532 10.8139 25.2118 12.279C25.2704 13.7442 24.7446 15.1726 23.75 16.25L15 25Z" fill="#FF5F5F"/>
</g>
<defs>
<clipPath id="clip0">
<rect width="30" height="30" fill="white"/>
</clipPath>
</defs>
</svg>
