<svg width="44" height="44" viewBox="0 0 44 44" fill="none" xmlns="http://www.w3.org/2000/svg">
<path d="M22 38.5C31.1127 38.5 38.5 31.1127 38.5 22C38.5 12.8873 31.1127 5.5 22 5.5C12.8873 5.5 5.5 12.8873 5.5 22C5.5 31.1127 12.8873 38.5 22 38.5Z" stroke="#272643" stroke-width="2.75" stroke-linecap="round" stroke-linejoin="round"/>
<path d="M10.3583 10.3583L33.6417 33.6417" stroke="#272643" stroke-width="2.75" stroke-linecap="round" stroke-linejoin="round"/>
<path d="M10.3583 33.6417L33.6417 10.3583" stroke="#272643" stroke-width="2.75" stroke-linecap="round" stroke-linejoin="round"/>
<path d="M22 5.5C22 9.87607 23.7384 14.0729 26.8327 17.1673C29.9271 20.2616 34.1239 22 38.5 22" stroke="#272643" stroke-width="2.75" stroke-linecap="round" stroke-linejoin="round"/>
<path d="M5.5 22C9.87607 22 14.0729 23.7384 17.1673 26.8327C20.2616 29.9271 22 34.1239 22 38.5" stroke="#272643" stroke-width="2.75" stroke-linecap="round" stroke-linejoin="round"/>
</svg>
